 <svg
              width="267px"
              height="38px"
              viewBox="0 0 267 38"
              fill="none"
              xmlns="http://www.w3.org/2000/svg"
            >
              <path
                fillRule="evenodd"
                clipRule="evenodd"
                d="M74.9749 1.06664L74.8498 36.9011H82.8183C82.8063 27.4576 82.8183 0.939391 82.8183 0.939391L74.9749 1.06664ZM97.6616 1.06664C97.5928 1.13647 97.5367 27.0816 97.5367 36.9011V36.8605C97.5367 36.8605 126.507 36.8168 134.473 36.8128V28.793H105.505C105.505 28.793 105.416 1.64775 105.363 0.939391C103.279 0.939391 97.7302 0.996625 97.6616 1.06664ZM218.47 0.927372L218.376 36.9011H226.255L226.385 8.95495L241.13 9.00131C257.513 9.05262 256.459 8.96849 257.832 10.3339C260.068 12.5587 259.628 16.2631 256.935 17.8738C256.099 18.3735 255.928 18.3996 252.875 18.491L249.688 18.5864L249.586 26.4806L254.983 31.9771C257.951 35 260.509 37.5772 260.668 37.7041L266.534 32.2511L259.699 25.3918L260.876 24.7554C262.279 23.9967 264.428 21.8628 265.31 20.3528C266.429 18.4347 266.895 16.7507 266.986 14.2939C267.129 10.4257 266.17 7.77727 263.642 5.06211C262.002 3.30047 260.502 2.31338 258.312 1.55446L256.812 1.03478L218.47 0.927372Z"
                fill="white"
              />
              <path
                d="M150.182 38L144.41 32.4964L176.309 0.176276C176.4 0.176276 208.012 32.2663 208.012 32.2663C208.012 32.2663 202.561 37.9073 202.482 37.9225L176.28 11.4206L150.182 38Z"
                fill="white"
              />
              <path
                d="M63.4435 5.40342L31.7612 37.9721L0 5.65887L5.55206 0C12.0755 6.6368 31.6048 26.3129 31.6913 26.3129L57.9698 0.0455934L63.4435 5.40342Z"
                fill="white"
              />
            </svg>